<?xml version="1.0" standalone="no"?>
<!DOCTYPE svg PUBLIC "-//W3C//DTD SVG 20010904//EN"
 "http://www.w3.org/TR/2001/REC-SVG-20010904/DTD/svg10.dtd">
<svg version="1.0" xmlns="http://www.w3.org/2000/svg"
 width="1000.000000pt" height="1000.000000pt" viewBox="0 0 1000.000000 1000.000000"
 preserveAspectRatio="xMidYMid meet">
<metadata>
Created by potrace 1.14, written by Peter Selinger 2001-2017
</metadata>
<g transform="translate(0.000000,1000.000000) scale(0.100000,-0.100000)"
fill="#000000" stroke="none">
<path d="M7654 6715 c-173 -32 -314 -159 -365 -327 -19 -62 -21 -96 -22 -425
l-2 -358 -356 -1 c-303 -1 -364 -4 -415 -19 -217 -62 -357 -240 -363 -461 -4
-134 44 -256 139 -354 66 -67 168 -123 253 -139 27 -5 175 -9 330 -9 155 -1
312 -1 349 -2 l66 0 0 -353 c1 -335 2 -357 22 -417 31 -91 63 -141 129 -203
97 -89 206 -130 336 -126 218 7 405 169 444 383 7 35 11 199 11 402 l0 343
373 4 c204 2 386 6 402 10 110 28 242 129 294 227 78 149 80 304 5 452 -53
105 -189 211 -305 237 -25 6 -199 11 -406 11 l-363 0 -1 343 c0 374 -2 408
-30 483 -80 213 -304 341 -525 299z"/>
<path d="M779 5992 l-26 -3 1 -474 0 -474 103 -3 c57 -2 110 -1 117 2 10 4 12
49 12 193 -1 118 3 187 9 188 6 1 64 3 130 4 66 1 127 3 135 4 13 1 15 17 15
89 l0 87 -143 0 c-119 0 -142 2 -143 15 -1 16 -1 171 0 181 1 3 86 5 190 5
162 -1 190 1 193 14 3 13 2 116 -1 160 -1 13 -40 15 -283 15 -156 0 -295 -1
-309 -3z"/>
<path d="M1695 5796 c-156 -48 -245 -184 -245 -376 0 -125 35 -222 107 -296
111 -114 300 -125 414 -25 l45 39 -1 -48 -1 -49 114 -3 c71 -2 116 1 117 7 2
6 3 177 2 380 l-2 370 -112 1 c-123 2 -126 1 -118 -58 4 -32 -14 -37 -32 -9
-7 10 -37 31 -68 46 -64 32 -156 40 -220 21z m240 -216 c106 -66 101 -270 -8
-326 -66 -35 -148 -23 -193 28 -69 77 -62 218 14 286 24 21 35 25 87 35 31 6
67 -3 100 -23z"/>
<path d="M2659 5800 c-54 -10 -139 -55 -183 -97 -21 -20 -53 -66 -70 -103 -42
-90 -49 -223 -16 -319 41 -122 110 -192 229 -232 l57 -20 -1 -67 c-1 -37 0
-73 3 -79 3 -9 25 -13 61 -13 67 0 93 -15 81 -46 -8 -20 -17 -22 -111 -23 -56
-1 -106 -4 -109 -6 -4 -2 -7 -30 -6 -62 l1 -58 135 0 c114 0 141 3 175 20 54
27 85 76 85 134 0 80 -50 138 -129 148 -25 3 -41 11 -44 22 -6 25 3 41 24 41
37 0 129 49 172 92 45 45 84 115 89 157 l3 25 -110 1 c-117 1 -140 -4 -149
-33 -9 -28 -60 -52 -108 -52 -76 1 -125 63 -131 167 -9 141 58 226 164 208 29
-5 47 -16 70 -44 l30 -38 119 0 c68 0 120 4 120 9 0 21 -46 116 -74 151 -36
46 -106 91 -166 108 -53 14 -159 19 -211 9z"/>
<path d="M3435 5796 c-59 -18 -97 -41 -134 -78 -150 -152 -150 -449 0 -599
110 -110 306 -118 414 -18 l41 38 -2 -45 c-2 -57 4 -60 134 -56 l99 3 -1 377
-1 377 -115 0 -115 0 0 -47 c1 -27 -1 -48 -3 -48 -2 0 -13 11 -23 24 -50 64
-200 100 -294 72z m229 -211 c53 -26 87 -88 87 -162 1 -106 -40 -165 -126
-184 -48 -11 -60 -10 -96 6 -72 33 -111 107 -102 196 13 129 125 197 237 144z"/>
<path d="M4818 4734 c-57 -17 -102 -68 -123 -138 -8 -27 -15 -53 -15 -58 0 -4
29 -8 65 -8 50 0 65 3 65 15 0 8 9 23 21 33 24 23 59 18 128 -18 116 -62 232
-19 274 100 29 82 28 84 -28 86 -56 1 -85 -10 -85 -31 0 -16 -30 -35 -56 -35
-10 0 -45 13 -78 29 -77 37 -109 42 -168 25z"/>
<path d="M761 4662 c-8 -3 -11 -140 -11 -508 l0 -504 226 0 c172 0 242 4 297
16 189 43 323 169 371 349 31 120 15 277 -41 391 -60 122 -203 223 -355 250
-44 7 -466 13 -487 6z m421 -216 c134 -18 219 -121 224 -274 4 -117 -30 -200
-105 -254 -49 -35 -110 -50 -209 -53 -67 -1 -85 2 -90 14 -6 12 -8 490 -3 558
1 6 9 13 19 15 20 4 111 1 164 -6z"/>
<path d="M2109 4466 c-2 -2 -22 -7 -43 -10 -126 -20 -246 -123 -291 -251 -27
-74 -29 -221 -4 -294 39 -112 113 -192 226 -243 40 -18 67 -22 168 -22 108 -1
126 2 178 25 144 63 227 181 243 342 20 209 -108 396 -301 442 -34 8 -170 16
-176 11z m150 -242 c73 -43 100 -194 51 -282 -50 -88 -159 -115 -234 -58 -50
38 -69 85 -70 171 0 52 5 80 21 111 46 87 142 111 232 58z"/>
<path d="M2918 4450 c-157 -59 -237 -181 -244 -371 -6 -157 37 -275 132 -358
124 -109 326 -108 435 3 l35 36 -3 -55 -3 -55 125 0 125 0 1 28 c0 34 0 705
-1 748 l0 32 -123 -1 -124 0 1 -53 1 -54 -35 35 c-76 74 -221 104 -322 65z
m260 -219 c96 -50 125 -200 59 -300 -34 -50 -79 -75 -138 -74 -129 2 -204 124
-164 268 30 106 146 156 243 106z"/>
<path d="M3930 4450 c-30 -9 -69 -24 -86 -33 -46 -24 -119 -99 -143 -146 -89
-173 -56 -410 72 -528 53 -49 75 -61 147 -84 l55 -17 2 -82 c1 -45 4 -84 6
-86 2 -3 31 -5 63 -6 65 -1 94 -11 94 -33 0 -33 -25 -41 -139 -40 l-111 0 0
-67 c0 -64 1 -68 23 -69 145 -4 262 3 295 16 77 33 109 85 103 170 -4 71 -60
128 -139 141 -47 8 -52 12 -44 35 6 14 27 27 68 41 68 23 143 77 179 128 32
47 68 129 62 143 -3 8 -42 12 -128 11 l-124 0 -20 -32 c-57 -90 -190 -78 -239
22 -29 59 -29 173 -1 234 33 70 70 90 163 84 24 -2 75 -46 84 -72 4 -12 29
-15 137 -15 l132 -1 -7 31 c-23 106 -124 215 -234 251 -74 24 -200 26 -270 4z"/>
<path d="M4818 4450 c-186 -57 -294 -214 -287 -417 8 -236 182 -398 423 -392
180 4 308 83 376 231 75 162 35 379 -90 490 -45 40 -124 82 -177 94 -65 14
-189 11 -245 -6z m222 -226 c100 -60 99 -280 -2 -342 -104 -64 -220 -13 -247
109 -43 190 98 321 249 233z"/>
<path d="M5741 4453 c-191 -48 -303 -217 -288 -433 16 -232 175 -380 407 -380
76 0 124 12 198 47 77 38 162 139 174 208 3 19 -3 20 -122 21 l-125 2 -32 -34
c-71 -74 -199 -51 -238 43 -30 72 -45 68 247 67 145 -1 271 0 281 3 38 10 12
201 -39 289 -85 145 -279 215 -463 167z m210 -214 c28 -20 46 -49 54 -91 4
-17 -9 -18 -152 -18 l-155 0 6 26 c26 101 159 146 247 83z"/>
<path d="M6567 4449 c-125 -37 -198 -129 -193 -241 6 -127 72 -182 280 -234
114 -28 156 -52 156 -87 0 -43 -37 -66 -102 -63 -52 2 -95 26 -111 64 l-12 27
-117 0 c-115 1 -118 0 -118 -21 0 -38 36 -107 76 -148 21 -21 67 -53 103 -70
62 -29 72 -31 186 -31 108 0 125 3 175 26 99 46 153 121 152 213 0 144 -79
204 -349 268 -105 24 -120 107 -23 128 57 13 140 -32 140 -75 0 -10 29 -13
115 -12 63 0 115 3 115 7 0 27 -35 114 -59 148 -76 103 -257 148 -414 101z"/>
</g>
</svg>
