<svg id="svgs" xmlns="http://www.w3.org/2000/svg" width="1049.409" height="310.645" viewBox="0 0 1049.409 310.645">
  <defs>
    <style>
      .cls-1 {
        fill: #3686C5;
      }
    </style>
  </defs>
  <g id="alimento" transform="translate(190.318 0.812)">
    <g id="Grupo_2" data-name="Grupo 2" transform="translate(30.467 16.972)">
      <g id="Grupo_1" data-name="Grupo 1">
        <path id="Caminho_3" data-name="Caminho 3" class="cls-1" d="M148.833,118.741A44.067,44.067,0,1,0,192.9,162.808,44.117,44.117,0,0,0,148.833,118.741Zm0,82.318a38.251,38.251,0,1,1,38.251-38.251A38.294,38.294,0,0,1,148.833,201.059Z" transform="translate(-104.766 -118.741)"/>
      </g>
    </g>
    <g id="Grupo_4" data-name="Grupo 4" transform="translate(44.831 31.336)">
      <g id="Grupo_3" data-name="Grupo 3" transform="translate(0 0)">
        <path id="Caminho_4" data-name="Caminho 4" class="cls-1" d="M209.949,183.624A2.908,2.908,0,0,0,206,182.465c-.047.026-.091.056-.136.083a2.906,2.906,0,0,0-1.023,3.862,23.854,23.854,0,1,1-17.211-12.163,2.9,2.9,0,0,0,3.295-2.26c.011-.052.024-.1.033-.157a2.908,2.908,0,0,0-2.417-3.327,29.691,29.691,0,1,0,21.406,15.121Z" transform="translate(-154.16 -168.136)"/>
      </g>
    </g>
    <g id="Grupo_6" data-name="Grupo 6" transform="translate(88.15 35.888)">
      <g id="Grupo_5" data-name="Grupo 5">
        <path id="Caminho_5" data-name="Caminho 5" class="cls-1" d="M308.085,184.638a2.782,2.782,0,0,0-.442-.361,2.87,2.87,0,0,0-.5-.268,2.938,2.938,0,0,0-.544-.166,2.88,2.88,0,0,0-1.137,0,3,3,0,0,0-.544.166,2.857,2.857,0,0,0-1.306,1.07,2.868,2.868,0,0,0-.268.5,2.806,2.806,0,0,0-.114.339c-.019.068-.038.136-.052.2a2.957,2.957,0,0,0,0,1.137,3,3,0,0,0,.166.544,2.945,2.945,0,0,0,.628.943,3.153,3.153,0,0,0,.445.363,2.949,2.949,0,0,0,.5.268,3,3,0,0,0,.544.166,2.9,2.9,0,0,0,1.681-.166,2.857,2.857,0,0,0,.434-.226c.023-.014.047-.026.069-.041a2.967,2.967,0,0,0,.442-.363,2.786,2.786,0,0,0,.361-.442,2.949,2.949,0,0,0,.268-.5,3.061,3.061,0,0,0,.166-.544,2.894,2.894,0,0,0,.058-.57A2.929,2.929,0,0,0,308.085,184.638Z" transform="translate(-303.121 -183.787)"/>
      </g>
    </g>
    <g id="Grupo_8" data-name="Grupo 8" transform="translate(117.192 0.51)">
      <g id="Grupo_7" data-name="Grupo 7">
        <path id="Caminho_6" data-name="Caminho 6" class="cls-1" d="M434.615,164.311,425.183,87.5a40.766,40.766,0,0,0-10.874-23.074l-.254-.268a6.411,6.411,0,0,0-11.016,5.192l11.956,97.374q.058.469.157.922a9.881,9.881,0,0,0,18.232,2.775q.236-.413.433-.848t.351-.89A9.82,9.82,0,0,0,434.615,164.311Zm-25.8-95.674a.537.537,0,0,1,.337-.611.659.659,0,0,1,.282-.07.545.545,0,0,1,.4.2l.254.268A34.946,34.946,0,0,1,419.411,88.2l5.027,40.94-8.075.991ZM428.591,167a4.067,4.067,0,0,1-7.823-.991l-3.7-30.1,8.075-.991,3.7,30.1A4.047,4.047,0,0,1,428.591,167Z" transform="translate(-402.988 -62.135)"/>
      </g>
    </g>
    <g id="Grupo_10" data-name="Grupo 10" transform="translate(0)">
      <g id="Grupo_9" data-name="Grupo 9">
        <path id="Caminho_7" data-name="Caminho 7" class="cls-1" d="M35.864,63.681a2.907,2.907,0,0,0-3.241,2.532L29.978,87.754A6.926,6.926,0,0,1,23.5,93.848l-1.928-.237,3.478-28.328a2.908,2.908,0,1,0-5.773-.709L15.795,92.9l-1.93-.237a6.926,6.926,0,0,1-4.815-7.482L11.7,63.644a2.908,2.908,0,1,0-5.773-.709L3.278,84.475a12.71,12.71,0,0,0,6.729,12.866L.114,161.01l0,.022a10.125,10.125,0,0,0,8.78,11.528l.053.006a10.323,10.323,0,0,0,1.259.077,10.129,10.129,0,0,0,10.058-9.208l5.848-64.116a12.709,12.709,0,0,0,9.643-10.856L38.4,66.922A2.909,2.909,0,0,0,35.864,63.681ZM14.469,162.907a4.31,4.31,0,0,1-4.814,3.886l-.053-.006a4.309,4.309,0,0,1-3.739-4.9l9.812-63.143,2.295.282h.006l2.293.282Z" transform="translate(0 -60.38)"/>
      </g>
    </g>
  </g>
  <g id="brinquedo" transform="translate(371.26)">
    <g id="_027---Lego" data-name="027---Lego" transform="translate(0 0)">
      <path id="Shape" class="cls-1" d="M16,15.2c0,4.1,5.157,7.2,12,7.2s12-3.1,12-7.2S34.84,8,28,8,16,11.1,16,15.2Zm12-2.4c4.646,0,7.2,1.8,7.2,2.4s-2.553,2.4-7.2,2.4-7.2-1.8-7.2-2.4S23.353,12.8,28,12.8Z" transform="translate(20.018 11.198)"/>
      <path id="Shape-2" data-name="Shape" class="cls-1" d="M35,40.2c0,4.1,5.157,7.2,12,7.2s12-3.1,12-7.2S53.84,33,47,33,35,36.1,35,40.2Zm19.2,0c0,.6-2.553,2.4-7.2,2.4s-7.2-1.8-7.2-2.4,2.553-2.4,7.2-2.4S54.2,39.6,54.2,40.2Z" transform="translate(46.613 46.192)"/>
      <path id="Shape-3" data-name="Shape" class="cls-1" d="M142.6,83.991a2.3,2.3,0,0,0-.1-.5,2.4,2.4,0,0,0-1.365-2.88L127.8,74.994c-1.274-3.175-5.819-5.4-11.605-5.4-1.716,0,.643.8-9.789-3.6-.77-3.016-4.44-5.3-9.409-5.863,0-39.356.094-37.573-.187-38.24a2.5,2.5,0,0,0-1.26-1.269c-.461-.2.014,0-13.345-5.63C80.936,11.826,76.391,9.6,70.6,9.6c-1.716,0,.643.8-9.789-3.6C58.753-1.994,39.264-2.006,37.2,6c-10.41,4.387-8.068,3.6-9.789,3.6-5.786,0-10.319,2.227-11.605,5.392-6.7,2.824-13.678,5.759-13.343,5.63a2.3,2.3,0,0,0-1.171,1.135c-.415.823-.278-4.754-.278,81.433A2.4,2.4,0,0,0,2.481,105.4c96.237,40.52,91.053,38.583,92.121,38.583.811,0-2.208,1.133,46.526-19.385a1.869,1.869,0,0,0,1.034-.912c.6-.9.434,1.982.434-39.7ZM97,103.606l40.8-17.177v34.364L97,137.971Zm26.4-26.815c0,.6-2.553,2.4-7.2,2.4s-7.2-1.8-7.2-2.4,2.553-2.4,7.2-2.4S123.4,76.194,123.4,76.792Zm-7.2,7.2a13.679,13.679,0,0,0,10.876-4.1l6.942,2.925L94.6,99.409l-39.416-16.6,6.942-2.925A13.678,13.678,0,0,0,73,83.991c11.713,0,15.4-8.159,8.62-12.3l2.438-1.027c4.4,4.977,16.683,4.975,21.079,0l2.438,1.027C100.731,75.868,104.626,83.991,116.2,83.991Zm-33.407-18c-10.41,4.387-8.068,3.6-9.789,3.6-5.786,0-10.319,2.227-11.605,5.392l-9.992,4.207V43.613L92.2,26.436V60.13c-4.97.559-8.639,2.846-9.409,5.863ZM73,74.392c4.646,0,7.2,1.8,7.2,2.4s-2.553,2.4-7.2,2.4-7.2-1.8-7.2-2.4S68.359,74.392,73,74.392ZM5.812,26.436l40.8,17.177V79.191L5.812,62.024ZM101.8,67.193c0,.6-2.553,2.4-7.2,2.4s-7.2-1.8-7.2-2.4,2.553-2.4,7.2-2.4S101.8,66.6,101.8,67.193ZM77.8,16.8c0,.6-2.553,2.4-7.2,2.4s-7.2-1.8-7.2-2.4,2.553-2.4,7.2-2.4S77.8,16.2,77.8,16.8Zm-28.8-12c4.646,0,7.2,1.8,7.2,2.4s-2.553,2.4-7.2,2.4-7.2-1.8-7.2-2.4S44.361,4.8,49.007,4.8Zm-10.54,5.875c4.4,4.977,16.683,4.975,21.079,0L61.985,11.7a6.129,6.129,0,0,0-3.379,5.1c0,8.049,17.854,9.729,22.874,3.1l6.94,2.925-39.413,16.6L9.594,22.819l6.94-2.925c5.015,6.626,22.874,4.96,22.874-3.1a6.129,6.129,0,0,0-3.379-5.1ZM27.41,14.4c4.646,0,7.2,1.8,7.2,2.4s-2.553,2.4-7.2,2.4-7.2-1.8-7.2-2.4S22.764,14.4,27.41,14.4ZM5.812,67.231,48.071,85.025,92.2,103.606v34.364L5.812,101.6Z" transform="translate(-0.991 0)"/>
      <path id="Shape-4" data-name="Shape" class="cls-1" d="M69.181,65.551,16.387,42.682a2.4,2.4,0,1,0-1.905,4.4L67.275,69.952a2.4,2.4,0,1,0,1.905-4.4Z" transform="translate(15.792 59.434)"/>
      <path id="Shape-5" data-name="Shape" class="cls-1" d="M15.56,42.319l-7.2-3.12a2.4,2.4,0,0,0-1.92,4.4l7.2,3.12a2.4,2.4,0,1,0,1.92-4.4Z" transform="translate(4.619 54.588)"/>
    </g>
  </g>
  <g id="construcao" transform="translate(544.315 6.409)">
    <path id="Caminho_8" data-name="Caminho 8" class="cls-1" d="M163.26,40.232c-2.89,5.049-5.255,11.949-6.885,20.133a2.11,2.11,0,0,0,4.138.824c1.747-8.774,4.332-15.894,7.476-20.592a2.11,2.11,0,0,0-.837-3.074c-.576-.277-1.15-.58-1.706-.9-3.449-1.987-4.864-3.814-5.443-5a3.524,3.524,0,0,1,0-3.476c1.447-2.51,5.207-2.339,10.06.456a23.373,23.373,0,0,1,5.328,4.139,2.11,2.11,0,0,0,2.265.538c13.921-5.105,40.246-5.105,54.169,0a2.109,2.109,0,0,0,2.265-.538,23.374,23.374,0,0,1,5.328-4.139c3.449-1.986,5.74-2.292,7.052-2.2a3.527,3.527,0,0,1,3.008,1.746c1.446,2.51-.588,5.678-5.44,8.474-.558.322-1.133.626-1.707.9A2.11,2.11,0,0,0,241.5,40.6c2.487,3.716,4.591,8.838,6.252,15.226a2.109,2.109,0,1,0,4.082-1.061,59.474,59.474,0,0,0-5.6-14.532c8.332-4.835,9.036-10.5,6.907-14.189a7.708,7.708,0,0,0-6.366-3.847c-2.765-.192-5.945.733-9.454,2.755A28.528,28.528,0,0,0,232,28.873c-14.729-4.88-39.779-4.88-54.507,0a28.536,28.536,0,0,0-5.32-3.923c-8.409-4.846-13.686-2.614-15.82,1.092a7.709,7.709,0,0,0-.136,7.438c1.21,2.47,3.579,4.741,7.046,6.752Zm0,0" transform="translate(-111.641 -15.934)"/>
    <path id="Caminho_9" data-name="Caminho 9" class="cls-1" d="M433.911,164.511a2.109,2.109,0,1,0-4.158.71c4.313,25.277,1.091,54.616-7.336,66.793a2.11,2.11,0,0,0,.767,3.075c.374.192.738.391,1.084.59,4.853,2.8,6.886,5.964,5.44,8.475A3.527,3.527,0,0,1,426.7,245.9c-1.314.092-3.6-.215-7.052-2.2a23.567,23.567,0,0,1-5.182-3.984,2.111,2.111,0,0,0-2.206-.535c-1.389.476-2.926.917-4.567,1.312a2.109,2.109,0,0,0,.983,4.1c1.3-.312,2.539-.652,3.7-1.015a28.7,28.7,0,0,0,5.161,3.775,17.9,17.9,0,0,0,8.726,2.781c.245,0,.488-.008.727-.025a7.712,7.712,0,0,0,6.368-3.847c2.07-3.591,1.461-9.044-6.239-13.788,5-8.492,7.121-20.482,8.019-29.355a147.806,147.806,0,0,0-1.233-38.606Zm0,0" transform="translate(-291.868 -116.981)"/>
    <path id="Caminho_10" data-name="Caminho 10" class="cls-1" d="M288.247,161.766V149.418a9.726,9.726,0,0,0-9.716-9.715H242.949a9.726,9.726,0,0,0-9.715,9.715v12.349a9.726,9.726,0,0,0,9.715,9.715h35.582a9.726,9.726,0,0,0,9.715-9.715Zm-4.219,0a5.5,5.5,0,0,1-5.5,5.5H242.949a5.5,5.5,0,0,1-5.5-5.5V149.418a5.5,5.5,0,0,1,5.5-5.5h35.582a5.5,5.5,0,0,1,5.5,5.5Zm0,0" transform="translate(-167.638 -100.411)"/>
    <path id="Caminho_11" data-name="Caminho 11" class="cls-1" d="M99.767,114.509H96.319A24.187,24.187,0,0,0,78.6,93.332,28.455,28.455,0,0,0,50.386,67.618L33.195,20.389a19.2,19.2,0,0,0,5.213-16.33A4.827,4.827,0,0,0,31.993.291L5.746,9.845a4.826,4.826,0,0,0-2.492,7.01,19.2,19.2,0,0,0,14.488,9.158L34.6,72.341a28.789,28.789,0,0,0-8.44,8.674,2.109,2.109,0,1,0,3.571,2.247,24.217,24.217,0,0,1,44.756,11.85,2.108,2.108,0,0,0,1.7,1.987,19.94,19.94,0,0,1,16.008,19.52,2.109,2.109,0,0,0,2.109,2.109h5.463a5.953,5.953,0,0,1,5.947,5.946v4.257H4.22v-4.257a5.953,5.953,0,0,1,5.946-5.946h4a2.11,2.11,0,0,0,2.109-2.109,12.339,12.339,0,0,1,9.057-11.875,2.108,2.108,0,0,0,1.484-2.563,24.38,24.38,0,0,1-.748-7.311,23.975,23.975,0,0,1,.638-4.449,2.109,2.109,0,0,0-4.1-.989,28.274,28.274,0,0,0-.75,5.234,28.663,28.663,0,0,0,.452,6.662A16.588,16.588,0,0,0,12.195,114.51H10.167A10.176,10.176,0,0,0,0,124.674v5.435a3.044,3.044,0,0,0,3.041,3.04h103.85a3.044,3.044,0,0,0,3.041-3.04v-5.435a10.177,10.177,0,0,0-10.166-10.166ZM6.874,14.688a.606.606,0,0,1,.314-.879L33.435,4.255a.607.607,0,0,1,.806.471A14.851,14.851,0,0,1,19.295,21.884a14.932,14.932,0,0,1-12.421-7.2ZM22.2,25.924a19.244,19.244,0,0,0,7.524-2.738L46.012,67.938a28.2,28.2,0,0,0-7.682,2.314Zm0,0" transform="translate(-0.001 0.001)"/>
    <path id="Caminho_12" data-name="Caminho 12" class="cls-1" d="M229.951,373.48a5.29,5.29,0,0,1,8.245,4.388,2.109,2.109,0,0,0,4.219,0,9.51,9.51,0,0,0-14.826-7.884,2.109,2.109,0,1,0,2.362,3.5Zm0,0" transform="translate(-162.913 -264.758)"/>
    <path id="Caminho_13" data-name="Caminho 13" class="cls-1" d="M102.4,393.383a2.109,2.109,0,1,0,3.362,2.547,4.763,4.763,0,0,1,6.949-.7,2.109,2.109,0,0,0,2.794-3.16,8.978,8.978,0,0,0-13.1,1.309Zm0,0" transform="translate(-73.293 -280.186)"/>
    <path id="Caminho_14" data-name="Caminho 14" class="cls-1" d="M147.451,305.937a2.111,2.111,0,0,0,1.922-1.237,4.286,4.286,0,0,1,1.007-1.39,4.329,4.329,0,0,1,6.111.251,2.109,2.109,0,0,0,3.1-2.859,8.545,8.545,0,0,0-14.061,2.253,2.11,2.11,0,0,0,1.919,2.982Zm0,0" transform="translate(-104.465 -214.153)"/>
  </g>
  <g id="eletrodomestico" transform="translate(721.037)">
    <path id="Caminho_15" data-name="Caminho 15" class="cls-1" d="M108,0H12A12.014,12.014,0,0,0,0,12V127.2a7.2,7.2,0,0,0,7.2,7.2v7.2A2.4,2.4,0,0,0,9.6,144H110.4a2.4,2.4,0,0,0,2.4-2.4v-7.2a7.2,7.2,0,0,0,7.2-7.2V12A12.015,12.015,0,0,0,108,0ZM12,4.8h96a7.2,7.2,0,0,1,7.2,7.2V28.8H4.8V12A7.2,7.2,0,0,1,12,4.8Zm96,134.4H12v-4.8h96Zm4.8-9.6H7.2a2.4,2.4,0,0,1-2.4-2.4V33.6H115.2v93.6a2.4,2.4,0,0,1-2.4,2.4Zm0,0"/>
    <path id="Caminho_16" data-name="Caminho 16" class="cls-1" d="M36.533,48.532h28.8a2.4,2.4,0,0,0,2.4-2.4v-9.6a2.4,2.4,0,0,0-2.4-2.4h-28.8a2.4,2.4,0,0,0-2.4,2.4v9.6a2.4,2.4,0,0,0,2.4,2.4Zm2.4-9.6h24v4.8h-24Zm0,0" transform="translate(-24.533 -24.533)"/>
    <path id="Caminho_17" data-name="Caminho 17" class="cls-1" d="M177.868,48.532a7.2,7.2,0,1,0-7.2-7.2A7.2,7.2,0,0,0,177.868,48.532Zm0-9.6a2.4,2.4,0,1,1-2.4,2.4A2.4,2.4,0,0,1,177.868,38.933Zm0,0" transform="translate(-122.668 -24.533)"/>
    <path id="Caminho_18" data-name="Caminho 18" class="cls-1" d="M246.133,48.532a7.2,7.2,0,1,0-7.2-7.2A7.2,7.2,0,0,0,246.133,48.532Zm0-9.6a2.4,2.4,0,1,1-2.4,2.4A2.4,2.4,0,0,1,246.133,38.933Zm0,0" transform="translate(-171.734 -24.533)"/>
    <path id="Caminho_19" data-name="Caminho 19" class="cls-1" d="M309.6,56h4.8a2.4,2.4,0,0,0,0-4.8h-4.8a2.4,2.4,0,1,0,0,4.8Zm0,0" transform="translate(-220.8 -36.8)"/>
    <path id="Caminho_20" data-name="Caminho 20" class="cls-1" d="M360.8,56h4.8a2.4,2.4,0,1,0,0-4.8h-4.8a2.4,2.4,0,1,0,0,4.8Zm0,0" transform="translate(-257.6 -36.8)"/>
    <path id="Caminho_21" data-name="Caminho 21" class="cls-1" d="M115.2,153.6A38.4,38.4,0,1,0,153.6,192,38.4,38.4,0,0,0,115.2,153.6Zm0,72A33.6,33.6,0,1,1,148.8,192,33.6,33.6,0,0,1,115.2,225.6Zm0,0" transform="translate(-55.201 -110.402)"/>
    <path id="Caminho_22" data-name="Caminho 22" class="cls-1" d="M133.6,179.2a31.168,31.168,0,0,0-28.854,43.03c.014.048,0,.1.019.146s.065.093.089.149a31.176,31.176,0,0,0,58.85-4.056.924.924,0,0,0,.031-.121A31.08,31.08,0,0,0,133.6,179.2Zm0,4.8a26.338,26.338,0,0,1,25.759,32.112,37.047,37.047,0,0,0-3.679,1.44A21.777,21.777,0,0,1,145.6,220a16.21,16.21,0,0,1-8.527-2.16A20.966,20.966,0,0,0,126.4,215.2a63.046,63.046,0,0,0-17.894,3.36A26.37,26.37,0,0,1,133.6,184Zm0,52.8A26.42,26.42,0,0,1,110.4,223a57.183,57.183,0,0,1,15.994-3,16.214,16.214,0,0,1,8.526,2.16A20.962,20.962,0,0,0,145.6,224.8a25.891,25.891,0,0,0,11.623-2.685A26.4,26.4,0,0,1,133.6,236.8Zm0,0" transform="translate(-73.599 -128.799)"/>
  </g>
  <g id="eletronico" transform="translate(303.412 181.601)">
    <g id="Grupo_12" data-name="Grupo 12" transform="translate(0 0)">
      <g id="Grupo_11" data-name="Grupo 11">
        <path id="Caminho_23" data-name="Caminho 23" class="cls-1" d="M128.249,90.5H126V43.25A11.263,11.263,0,0,0,114.749,32H20.25A11.263,11.263,0,0,0,9,43.25V77H6.75A6.75,6.75,0,0,0,0,83.75v58.5A6.75,6.75,0,0,0,6.75,149h85.5a2.25,2.25,0,0,0,2.25-2.25,11.263,11.263,0,0,0-11.25-11.25H76.5V122h27v20.25a6.75,6.75,0,0,0,6.75,6.75h18a6.75,6.75,0,0,0,6.75-6.75v-45A6.75,6.75,0,0,0,128.249,90.5ZM49.5,142.249a2.25,2.25,0,0,1-2.25,2.25H6.75a2.25,2.25,0,0,1-2.25-2.25V140h45Zm0-6.75H4.5V83.75A2.25,2.25,0,0,1,6.75,81.5h40.5a2.25,2.25,0,0,1,2.25,2.25Zm33.75,4.5a6.763,6.763,0,0,1,6.365,4.5H53.586a6.673,6.673,0,0,0,.414-2.25V140ZM54,135.5V122h4.5v13.5Zm9,0V122h9v13.5Zm40.5-18H54V104h49.5Zm0-20.25V99.5H54V83.75a6.669,6.669,0,0,0-.769-3.062c.034-.031.079-.04.11-.074L75.615,58.338a2.25,2.25,0,0,0-3.181-3.181L50.159,77.432c-.054.056-.076.128-.124.187A6.665,6.665,0,0,0,47.25,77H13.5V43.25a6.75,6.75,0,0,1,6.75-6.75h94.5a6.75,6.75,0,0,1,6.75,6.75V90.5h-11.25A6.75,6.75,0,0,0,103.5,97.25Zm27,45a2.25,2.25,0,0,1-2.25,2.25h-18a2.25,2.25,0,0,1-2.25-2.25V140h22.5Zm0-6.75H108V97.25a2.25,2.25,0,0,1,2.25-2.25h18a2.25,2.25,0,0,1,2.25,2.25Z" transform="translate(0 -32)"/>
      </g>
    </g>
    <g id="Grupo_14" data-name="Grupo 14" transform="translate(13.472 71.728)">
      <g id="Grupo_13" data-name="Grupo 13">
        <path id="Caminho_24" data-name="Caminho 24" class="cls-1" d="M61.315,287.693a2.25,2.25,0,0,0-3.181,0l-9.544,9.544a2.25,2.25,0,1,0,3.126,3.237l.055-.055,9.544-9.544C61.716,290.178,60.909,288.855,61.315,287.693Z" transform="translate(-47.902 -287.034)"/>
      </g>
    </g>
    <g id="Grupo_16" data-name="Grupo 16" transform="translate(26.972 71.755)">
      <g id="Grupo_15" data-name="Grupo 15">
        <path id="Caminho_25" data-name="Caminho 25" class="cls-1" d="M109.259,287.762a2.25,2.25,0,0,0-3.126,0l-9.544,9.544a2.25,2.25,0,0,0,3.126,3.237l.055-.055,9.544-9.544A2.25,2.25,0,0,0,109.259,287.762Z" transform="translate(-95.902 -287.13)"/>
      </g>
    </g>
    <g id="Grupo_18" data-name="Grupo 18" transform="translate(63.197 22.528)">
      <g id="Grupo_17" data-name="Grupo 17">
        <path id="Caminho_26" data-name="Caminho 26" class="cls-1" d="M250.79,112.73a2.25,2.25,0,0,0-3.126,0L225.389,135a2.25,2.25,0,0,0,3.126,3.237l.055-.055,22.275-22.275A2.25,2.25,0,0,0,250.79,112.73Z" transform="translate(-224.702 -112.098)"/>
      </g>
    </g>
    <g id="Grupo_20" data-name="Grupo 20" transform="translate(113.79 77.845)">
      <g id="Grupo_19" data-name="Grupo 19">
        <path id="Caminho_27" data-name="Caminho 27" class="cls-1" d="M414.766,309.418a2.25,2.25,0,0,0-3.126,0l-6.363,6.363a2.25,2.25,0,0,0,3.126,3.237l.055-.055,6.363-6.363A2.25,2.25,0,0,0,414.766,309.418Z" transform="translate(-404.59 -308.786)"/>
      </g>
    </g>
    <g id="Grupo_22" data-name="Grupo 22" transform="translate(65.283 76.499)">
      <g id="Grupo_21" data-name="Grupo 21">
        <path id="Caminho_28" data-name="Caminho 28" class="cls-1" d="M234.381,304h-.022a2.261,2.261,0,1,0,.022,0Z" transform="translate(-232.12 -304)"/>
      </g>
    </g>
    <g id="Grupo_24" data-name="Grupo 24" transform="translate(60.75 9)">
      <g id="Grupo_23" data-name="Grupo 23">
        <path id="Caminho_29" data-name="Caminho 29" class="cls-1" d="M227.25,64h-9a2.25,2.25,0,0,0,0,4.5h9a2.25,2.25,0,1,0,0-4.5Z" transform="translate(-216 -64)"/>
      </g>
    </g>
  </g>
  <g id="escolar" transform="translate(468.997 166.646)">
    <g id="Grupo_27" data-name="Grupo 27" transform="translate(0)">
      <g id="Grupo_26" data-name="Grupo 26">
        <g id="Grupo_25" data-name="Grupo 25">
          <path id="Caminho_30" data-name="Caminho 30" class="cls-1" d="M182.128,0h-33.6a12.014,12.014,0,0,0-12,12V98.4a2.4,2.4,0,0,0,2.4,2.4h14.4a2.4,2.4,0,1,0,0-4.8h-12V91.2h2.4a2.4,2.4,0,0,0,0-4.8h-2.4V81.6h2.4a2.4,2.4,0,0,0,0-4.8h-2.4V72h2.4a2.4,2.4,0,0,0,0-4.8h-2.4V62.4h12a2.4,2.4,0,1,0,0-4.8h-12V52.8h2.4a2.4,2.4,0,0,0,0-4.8h-2.4V43.2h2.4a2.4,2.4,0,0,0,0-4.8h-2.4V33.6h2.4a2.4,2.4,0,0,0,0-4.8h-2.4V24h12a2.4,2.4,0,1,0,0-4.8h-12V12a7.209,7.209,0,0,1,7.2-7.2h33.6a7.209,7.209,0,0,1,7.2,7.2V132a7.209,7.209,0,0,1-7.2,7.2h-33.6a7.209,7.209,0,0,1-7.2-7.2V108a2.4,2.4,0,1,0-4.8,0v24a12.014,12.014,0,0,0,12,12h33.6a12.014,12.014,0,0,0,12-12V12A12.014,12.014,0,0,0,182.128,0Z" transform="translate(-98.132)"/>
          <path id="Caminho_31" data-name="Caminho 31" class="cls-1" d="M34.138,104.792v86.4a2.4,2.4,0,0,0,4.8,0v-86.4a2.4,2.4,0,0,0-4.8,0Z" transform="translate(-24.538 -73.594)"/>
          <path id="Caminho_32" data-name="Caminho 32" class="cls-1" d="M14.15,1.591a2.5,2.5,0,0,0-4.294,0l-9.6,19.2A2.4,2.4,0,0,0,0,21.864v110.4a12,12,0,1,0,24,0v-4.8a2.4,2.4,0,0,0-2.4-2.4H12a2.4,2.4,0,1,0,0,4.8h7.2v2.4a7.2,7.2,0,1,1-14.4,0V22.43L12,8.03l5.717,11.434H12a2.4,2.4,0,1,0,0,4.8h7.2v93.6a2.4,2.4,0,0,0,4.8,0V21.825a2.42,2.42,0,0,0-.274-1.077Z" transform="translate(-0.004 -0.266)"/>
          <path id="Caminho_33" data-name="Caminho 33" class="cls-1" d="M224,402.134a9.6,9.6,0,1,0-9.6,9.6A9.61,9.61,0,0,0,224,402.134Zm-14.4,0a4.8,4.8,0,1,1,4.8,4.8A4.8,4.8,0,0,1,209.6,402.134Z" transform="translate(-147.199 -282.135)"/>
          <path id="Caminho_34" data-name="Caminho 34" class="cls-1" d="M404.529,348.266a2.4,2.4,0,0,0,0,4.8h19.2a2.4,2.4,0,0,0,2.4-2.4v-14.4a12.014,12.014,0,0,0-12-12h-9.6a12.014,12.014,0,0,0-12,12v28.8a12.014,12.014,0,0,0,12,12h9.6a12.014,12.014,0,0,0,12-12v-4.8a2.4,2.4,0,1,0-4.8,0v4.8a7.209,7.209,0,0,1-7.2,7.2h-9.6a7.209,7.209,0,0,1-7.2-7.2v-28.8a7.209,7.209,0,0,1,7.2-7.2h9.6a7.209,7.209,0,0,1,7.2,7.2v12Z" transform="translate(-282.132 -233.067)"/>
        </g>
      </g>
    </g>
  </g>
  <g id="higienepessoal" transform="translate(644.096 166.646)">
    <path id="Caminho_35" data-name="Caminho 35" class="cls-1" d="M5,29H9.6V70.407H5Z" transform="translate(4.202 36.286)"/>
    <path id="Caminho_36" data-name="Caminho 36" class="cls-1" d="M5,49H9.6v4.6H5Z" transform="translate(4.202 62.519)"/>
    <path id="Caminho_37" data-name="Caminho 37" class="cls-1" d="M138.894,107.838H85.139v-5.347a16.293,16.293,0,0,0,16.933-4.8,14.073,14.073,0,0,0,11.113,5.5,13.923,13.923,0,0,0,8.867-3.154,16.366,16.366,0,0,0,21.516-15.426,16.085,16.085,0,0,0-5.158-11.833,20.542,20.542,0,0,0,.484-4.424,21.05,21.05,0,0,0-33.77-16.625A21.052,21.052,0,0,0,69.3,61.473a18.649,18.649,0,0,0-7.53,2.4V45.129a7,7,0,0,0-7.012-6.968H47.744V26.548a2.329,2.329,0,0,0-2.337-2.323H43.07V19.581H57.093v6.968a2.329,2.329,0,0,0,2.337,2.323h9.349a2.329,2.329,0,0,0,2.337-2.323v-9.29A11.663,11.663,0,0,0,59.43,5.645H43.07V3.323A2.329,2.329,0,0,0,40.732,1h-18.7A2.329,2.329,0,0,0,19.7,3.323v20.9H17.36a2.329,2.329,0,0,0-2.337,2.323V38.161H8.012A7,7,0,0,0,1,45.129v97.548A2.329,2.329,0,0,0,3.337,145H82.8a2.329,2.329,0,0,0,2.337-2.323v-2.323h42.069a6.968,6.968,0,1,0,0-13.935H115.523a2.323,2.323,0,1,1,0-4.645h23.372a6.968,6.968,0,1,0,0-13.935Zm-58.43-9.29H47.744V91.58a2.332,2.332,0,0,1,2.337-2.323H78.127a2.332,2.332,0,0,1,2.337,2.323ZM71.116,84.612H57.093v-9.29H71.116ZM54.755,70.677A2.329,2.329,0,0,0,52.418,73V84.612H50.081A7,7,0,0,0,43.07,91.58v30.193H5.674V61.387H57.093v9.29Zm-7.012,32.516H80.465v23.226H47.744ZM71.022,66.03c.056,0,.194.009.252.009A2.328,2.328,0,0,0,73.593,64a16.365,16.365,0,0,1,29.379-7.6,2.346,2.346,0,0,0,3.508.288,16.305,16.305,0,0,1,27.067,16.26,2.312,2.312,0,0,0,.809,2.49,11.516,11.516,0,0,1,4.539,9.172,11.684,11.684,0,0,1-16.4,10.616,2.355,2.355,0,0,0-2.62.5A9.323,9.323,0,0,1,104.463,92.5a2.33,2.33,0,0,0-2.05-1.5,2.288,2.288,0,0,0-2.216,1.252,11.684,11.684,0,0,1-15.059,5.316V91.58a7,7,0,0,0-7.012-6.968H75.79V73a2.329,2.329,0,0,0-2.337-2.323H61.767V69.6A13.918,13.918,0,0,1,71.022,66.03ZM59.43,10.29a7,7,0,0,1,7.012,6.968v6.968H61.767V17.258a2.329,2.329,0,0,0-2.337-2.323H43.07V10.29ZM24.372,5.645H38.4V24.226H24.372ZM19.7,28.871H43.07v9.29H19.7ZM8.012,42.806H54.755a2.332,2.332,0,0,1,2.337,2.323V56.742H5.674V45.129A2.332,2.332,0,0,1,8.012,42.806ZM5.674,126.419h37.4v13.935H5.674Zm42.07,13.935v-9.29H80.465v9.29Zm91.151-23.226H115.523a6.968,6.968,0,1,0,0,13.935h11.686a2.323,2.323,0,1,1,0,4.645H85.139V112.483h53.755a2.323,2.323,0,1,1,0,4.645Z" transform="translate(-1 -1)"/>
    <path id="Caminho_38" data-name="Caminho 38" class="cls-1" d="M57.9,36.5h4.6A11.515,11.515,0,0,0,51,25v4.6A6.91,6.91,0,0,1,57.9,36.5Z" transform="translate(66.301 30.788)"/>
  </g>
  <g id="limpeza" transform="translate(819.961 166.646)">
    <g id="Grupo_29" data-name="Grupo 29" transform="translate(0 0)">
      <g id="Grupo_28" data-name="Grupo 28">
        <path id="Caminho_39" data-name="Caminho 39" class="cls-1" d="M525.033,2.663,491.347,67.976q.29.081.578.174a25.1,25.1,0,0,1,4,1.671,21.2,21.2,0,0,1,4.091,2.791L533.77,7.169a4.915,4.915,0,1,0-8.737-4.506Z" transform="translate(-399.175 0)"/>
        <path id="Caminho_40" data-name="Caminho 40" class="cls-1" d="M37.088,419.278a76.3,76.3,0,0,0,19.545,12.508,101.769,101.769,0,0,0,24.647,7.662l.04.005a3.344,3.344,0,0,0,.452.031l.11,0c13.526-.442,24.068-4.946,31.332-13.389,9.555-11.1,13.008-27.8,12.336-42.152a17.55,17.55,0,0,0-4.529-11.3c-.214-.223-.434-.441-.664-.65a16.215,16.215,0,0,0-3.335-2.32,20.148,20.148,0,0,0-3.254-1.363,10.686,10.686,0,0,0-1.4-.346,10.9,10.9,0,0,0-1.929-.172c-4.742,0-9.289,2.981-12.762,6.025A109.109,109.109,0,0,1,86.4,383.074c-4.44,2.942-9.315,4.423-14.392,5.869a123.555,123.555,0,0,1-20.069,3.82,163.629,163.629,0,0,1-18.2,1.068q-3.621,0-7.228-.192c-.139-.008-.279-.014-.418-.024-.077-.005-.155-.008-.232-.008a3.339,3.339,0,0,0-3.156,4.425A50.793,50.793,0,0,0,37.088,419.278Zm-4.679-18.793h.006c.338,0,.687,0,1.046,0A174.287,174.287,0,0,0,52.916,399.4c16.263-1.851,29.521-5.809,39.557-11.791a1.807,1.807,0,0,1,.926-.255,1.828,1.828,0,0,1,.881.226c5.834,3.206,14.9,7.957,21.363,10.264a1.828,1.828,0,0,1,1.2,1.931c-.772,6.746-2.962,15.33-8.715,22-5.893,6.829-14.6,10.534-25.873,11.018l-.106,0a2.525,2.525,0,0,1-.436-.038c-1.137-.2-3.94-.741-7.7-1.777,1.072-.474,2.182-1.041,3.3-1.675,1-.567,2.016-1.185,3.019-1.832,3.1-2,6.1-4.271,8.439-6.139a.593.593,0,0,0-.6-1.009A80.889,80.889,0,0,1,70.7,424.836c-1.835.3-3.6.543-5.235.749-1.911.241-3.639.425-5.08.562q-.564-.248-1.13-.507a79.128,79.128,0,0,1-9.083-4.875,35.887,35.887,0,0,0,3.812-.581c1.184-.241,2.382-.533,3.561-.853a93.3,93.3,0,0,0,9.031-3.01.4.4,0,0,0-.182-.764c-4.11.4-9.812.432-14.68.36-1.595-.023-3.1-.058-4.431-.1-1.75-.05-3.2-.1-4.15-.143-.559-.467-1.106-.94-1.637-1.421q-1.031-.933-1.989-1.9c.988-.1,2.014-.258,3.056-.457.974-.187,1.961-.41,2.943-.657a90.224,90.224,0,0,0,10.162-3.306.4.4,0,0,0-.182-.764c-3.859.372-9.12.426-13.778.372-1.149-.013-2.261-.033-3.306-.056-1.163-.026-2.244-.056-3.2-.087a43.072,43.072,0,0,1-3.582-5.6A.9.9,0,0,1,32.409,400.484Z" transform="translate(-22.526 -295.485)"/>
        <circle id="Elipse_1" data-name="Elipse 1" class="cls-1" cx="7.89" cy="7.89" r="7.89" transform="translate(109.82 113.95)"/>
        <circle id="Elipse_2" data-name="Elipse 2" class="cls-1" cx="3.986" cy="3.986" r="3.986" transform="translate(96.707 135.923)"/>
        <circle id="Elipse_3" data-name="Elipse 3" class="cls-1" cx="3.986" cy="3.986" r="3.986" transform="translate(118.323 135.003)"/>
      </g>
    </g>
  </g>
  <g id="livros" transform="translate(873.147 6.409)">
    <g id="Grupo_31" data-name="Grupo 31" transform="translate(0 0)">
      <g id="Grupo_30" data-name="Grupo 30">
        <path id="Caminho_41" data-name="Caminho 41" class="cls-1" d="M163.687,78.323c-.713-5.358-.813-14.587,4.164-17.686a1.868,1.868,0,0,0,.233-.209c4.069-1.3,6.885-3.128,4.674-5.585L112.737,36.758,15.549,50.27S4.42,51.861,5.414,69.151c.54,9.411,3.491,14.032,6.072,16.307l-7.975,2.4c-2.214,2.458.6,4.285,4.671,5.584a1.61,1.61,0,0,0,.233.211c4.974,3.1,4.878,12.329,4.162,17.688-17.868,5.074-11.454,6.727-11.454,6.727l3.919.948C2.287,121.511-.451,126.235.062,135.2c.995,17.287,10.136,18.48,10.136,18.48l63.6,20.672L169.792,151.1s6.416-1.656-11.456-6.73c-.719-5.351-.818-14.577,4.167-17.687a1.468,1.468,0,0,0,.233-.208c4.069-1.3,6.883-3.126,4.672-5.584l-4.172-1.26c2.783-1.678,6.963-6.064,7.617-17.455.452-7.836-1.592-12.425-3.958-15.126l8.247-2S181.556,83.4,163.687,78.323ZM83.393,78.1l16.143-3.318,54.553-11.211,8.128-1.672c-2.6,4.753-2.488,11.258-2.058,15.439.094.946.2,1.81.308,2.466l-8.9,2.212L82.714,99.148ZM14.05,94.926,22.177,96.6l52.391,10.77,4.577.937h0l13.726,2.821.677,21.046L22.778,114.566,15.8,112.832c.1-.658.211-1.52.309-2.469C16.538,106.185,16.649,99.679,14.05,94.926ZM10.893,68.319c-.1-4.6.721-7.925,2.378-9.616a4.317,4.317,0,0,1,3.151-1.3,5.344,5.344,0,0,1,.8.063L59.095,71.114l20.892,6.812L79.3,99.119,20.691,82.687,17.6,81.82a1.872,1.872,0,0,0-.387-.059C16.969,81.743,11.175,81.21,10.893,68.319Zm63.056,96.847-61.7-17.3a1.833,1.833,0,0,0-.386-.061c-.246-.016-6.043-.549-6.323-13.437-.1-4.6.724-7.928,2.377-9.62a4.327,4.327,0,0,1,3.153-1.3,5.572,5.572,0,0,1,.8.061h0l62.764,20.467ZM154.8,143.385c.1.949.206,1.811.311,2.469L77.359,165.2l.68-21.046,16.623-3.418,2.455.594,9.2-2.99,42.414-8.716,8.131-1.673C154.263,132.7,154.371,139.207,154.8,143.385Zm4.283-28.6a1.492,1.492,0,0,0-.416.064l-5.864,1.642L96.967,132.144l-.683-21.193,18.319-5.975L158.962,90.51A4.62,4.62,0,0,1,163,91.727c1.654,1.691,2.474,5.017,2.378,9.616C165.093,114.23,159.3,114.765,159.084,114.782Z" transform="translate(0.001 -36.758)"/>
      </g>
    </g>
  </g>
  <g id="roupas" transform="translate(115.133 201.075)">
    <g id="Grupo_33" data-name="Grupo 33" transform="translate(0 0)">
      <g id="Grupo_32" data-name="Grupo 32" transform="translate(0 0)">
        <path id="Caminho_42" data-name="Caminho 42" class="cls-1" d="M6.211,173.649l69.21-36.562v-4.616c-.029-.007-.058-.017-.091-.024-10.9-2.7-18.223-9.491-18.223-18.223A18.224,18.224,0,0,1,75.329,96c9.294,0,17.373,6.8,18.17,15.915a2.531,2.531,0,0,1,.038.428c0,.017,0,.033,0,.053a3.281,3.281,0,0,1-6.561,0h-.019a10.218,10.218,0,0,0-2.853-6.139,12.151,12.151,0,0,0-8.78-3.7,11.676,11.676,0,0,0-11.662,11.665,9.2,9.2,0,0,0,3.05,6.689A22.09,22.09,0,0,0,76.9,126.08s4.981,1.537,5.067,1.568v1.141h0v8.3l69.2,36.562a10.944,10.944,0,0,1,6.215,9.626c0,6.129-5.538,11.1-12.368,11.1H12.364C5.533,194.37,0,189.4,0,183.275A10.939,10.939,0,0,1,6.211,173.649Zm6.153,14.16h132.66c3.146,0,5.807-2.075,5.807-4.534a4.438,4.438,0,0,0-2.661-3.8l-.029-.01-.029-.019L78.7,142.772,9.275,179.442l-.029.019-.029.01a4.438,4.438,0,0,0-2.661,3.8C6.556,185.734,9.217,187.809,12.364,187.809Z" transform="translate(0 -96)"/>
      </g>
    </g>
  </g>
  <g id="sofa">
    <g id="Page-1">
      <g id="_023---Packing-Furniture" data-name="023---Packing-Furniture">
        <path id="Shape-6" data-name="Shape" class="cls-1" d="M23.665,25A2.665,2.665,0,0,0,21,27.665V30.33a2.665,2.665,0,0,0,5.33,0V27.665A2.665,2.665,0,0,0,23.665,25Z" transform="translate(34.961 41.621)"/>
        <path id="Shape-7" data-name="Shape" class="cls-1" d="M58.33,30.33V27.665a2.665,2.665,0,0,0-5.33,0V30.33a2.665,2.665,0,0,0,5.33,0Z" transform="translate(88.236 41.621)"/>
        <path id="Shape-8" data-name="Shape" class="cls-1" d="M31.665,23.994A2.665,2.665,0,0,0,34.33,21.33V18.665a2.665,2.665,0,1,0-5.33,0V21.33A2.665,2.665,0,0,0,31.665,23.994Z" transform="translate(48.28 26.637)"/>
        <path id="Shape-9" data-name="Shape" class="cls-1" d="M47.665,23.994A2.665,2.665,0,0,0,50.33,21.33V18.665a2.665,2.665,0,1,0-5.33,0V21.33A2.665,2.665,0,0,0,47.665,23.994Z" transform="translate(74.917 26.637)"/>
        <path id="Shape-10" data-name="Shape" class="cls-1" d="M157.225,109.258H149.23V84.371a16,16,0,0,0-1.908-30.715c-.251-.053-.5-.075-.757-.117V45.3a21.343,21.343,0,0,0-21.319-21.319H77.28A21.343,21.343,0,0,0,55.961,45.3v8.242a15.867,15.867,0,0,0-13.082,13.1c-.083,0-.16-.024-.242-.024H39.972v-5.33a5.33,5.33,0,0,0-5.33-5.33H26.648V37.308h5.33V45.3a2.665,2.665,0,0,0,5.33,0V37.308h3.757a4,4,0,0,0,3.941-4.655L40.122,3.339A4,4,0,0,0,36.18,0H11.787A4,4,0,0,0,7.845,3.339L2.961,32.652A4,4,0,0,0,6.9,37.308H21.319V55.961H13.324a5.33,5.33,0,0,0-5.33,5.33v5.33H5.33A5.33,5.33,0,0,0,0,71.95v37.308a5.33,5.33,0,0,0,5.33,5.33H82.61a2.665,2.665,0,0,0,0-5.33H74.615v-5.33h53.3v5.33h-7.994a2.665,2.665,0,0,0,0,5.33h37.308a2.665,2.665,0,1,0,0-5.33ZM12.916,5.33H35.05l4.44,26.648H8.477ZM77.28,29.313H98.6V50.632a2.665,2.665,0,1,0,5.33,0V29.313h21.319A16.005,16.005,0,0,1,141.236,45.3v8.245a15.92,15.92,0,0,0-13.324,15.738V71.95H111.923a13.276,13.276,0,0,0-10.659,5.412A13.276,13.276,0,0,0,90.6,71.95H74.615V69.864a16.5,16.5,0,0,0-13.324-16.33V45.3A16.005,16.005,0,0,1,77.28,29.313ZM74.615,87.939V77.28H90.6A7.994,7.994,0,0,1,98.6,85.274v2.665Zm29.313-2.665a7.994,7.994,0,0,1,7.994-7.994h15.989V87.939H103.928Zm-90.6-23.983H34.643v5.33H13.324Zm5.33,10.659H29.313v8.344l-3.851-2.566a2.665,2.665,0,0,0-2.958,0l-3.851,2.566Zm21.319,37.308H5.33V71.95h7.994V85.274a2.665,2.665,0,0,0,4.144,2.217l6.515-4.349L30.5,87.486a2.665,2.665,0,0,0,4.144-2.212V71.95h7.994v37.308Zm7.994,0V81.136a15.832,15.832,0,0,0,5.33,3.23v24.892Zm10.659,0V82.343a2.665,2.665,0,0,0-2.132-2.614,10.659,10.659,0,0,1-5.026-18.334,10.543,10.543,0,0,1,7.158-2.769,10.321,10.321,0,0,1,1.066.053,11.059,11.059,0,0,1,9.593,11.192v39.386ZM74.615,98.6v-5.33h53.3V98.6Zm58.626,10.659V69.285a10.625,10.625,0,0,1,3.947-8.277,10.5,10.5,0,0,1,6.689-2.382h.024a11.459,11.459,0,0,1,2.329.245,10.659,10.659,0,0,1-.192,20.858,2.665,2.665,0,0,0-2.132,2.614v26.915Z"/>
      </g>
    </g>
  </g>
</svg>
